<?xml version="1.0" encoding="UTF-8"?>
<svg id="_Слой_2" data-name="Слой 2" xmlns="http://www.w3.org/2000/svg" xmlns:xlink="http://www.w3.org/1999/xlink" viewBox="0 0 562.97 609.67">
  <defs>
    <style>
      .cls-1 {
        fill: red;
        font-family: Broadway, Broadway;
        stroke: #ff0;
      }

      .cls-1, .cls-2 {
        stroke-miterlimit: 10;
      }

      .cls-3 {
        fill: url(#_Безымянный_градиент_4);
      }

      .cls-3, .cls-4, .cls-5, .cls-6, .cls-7 {
        fill-rule: evenodd;
      }

      .cls-8 {
        fill: #26070f;
        font-family: MyriadPro-Regular, 'Myriad Pro';
      }

      .cls-2 {
        fill: #ff0;
        stroke: red;
      }

      .cls-4 {
        fill: url(#_Безымянный_градиент_4-2);
      }

      .cls-5 {
        fill: url(#_Безымянный_градиент_4-4);
      }

      .cls-9 {
        fill: url(#_Безымянный_градиент_49);
      }

      .cls-10 {
        font-size: 85px;
      }

      .cls-6 {
        fill: url(#_Безымянный_градиент_4-3);
      }

      .cls-7 {
        fill: url(#_Безымянный_градиент_23);
      }
    </style>
    <linearGradient id="_Безымянный_градиент_23" data-name="Безымянный градиент 23" x1="81" y1="165.83" x2="430.44" y2="165.83" gradientUnits="userSpaceOnUse">
      <stop offset="0" stop-color="#3a1ad0"/>
      <stop offset=".43" stop-color="#7d5d94"/>
      <stop offset="1" stop-color="#0f53d4"/>
    </linearGradient>
    <linearGradient id="_Безымянный_градиент_4" data-name="Безымянный градиент 4" x1="269.26" y1="161.93" x2="329.83" y2="161.93" gradientUnits="userSpaceOnUse">
      <stop offset="0" stop-color="#e8e900"/>
      <stop offset=".43" stop-color="#d4ce28"/>
      <stop offset="1" stop-color="#fefeff"/>
    </linearGradient>
    <linearGradient id="_Безымянный_градиент_4-2" data-name="Безымянный градиент 4" x1="183.55" y1="162.67" x2="244.26" y2="162.67" xlink:href="#_Безымянный_градиент_4"/>
    <linearGradient id="_Безымянный_градиент_4-3" data-name="Безымянный градиент 4" x1="307.53" y1="167.01" x2="387.68" y2="167.01" xlink:href="#_Безымянный_градиент_4"/>
    <linearGradient id="_Безымянный_градиент_4-4" data-name="Безымянный градиент 4" x1="124.29" y1="167.94" x2="207.26" y2="167.94" xlink:href="#_Безымянный_градиент_4"/>
    <linearGradient id="_Безымянный_градиент_49" data-name="Безымянный градиент 49" x1="186.22" y1="388.07" x2="325.22" y2="388.07" gradientUnits="userSpaceOnUse">
      <stop offset="0" stop-color="#ff15ab"/>
      <stop offset=".5" stop-color="#bb00d4"/>
      <stop offset="1" stop-color="#d44b30"/>
    </linearGradient>
  </defs>
  <g id="_Слой_1-2" data-name="Слой 1">
    <g>
      <g>
        <path class="cls-7" d="m199.26,324.28c-6.86-7.95-13.97-15.53-21.59-23.66-42.42-45.15-99.63-106.14-96.55-178.62,2.39-56.77,44.87-94.04,99.89-111.05,48.71-14.59,100.71-14.59,149.42,0,55.01,17.02,97.5,54.28,99.89,111.12,3.02,72.48-54.19,133.41-96.55,178.62-7.68,8.14-14.73,15.65-21.65,23.66l-5.85,6.77v.56h-100.71l-6.29-7.21v-.19Z"/>
        <path class="cls-3" d="m269.26,40.94v241.97c44.38-92.51,90.73-191.87,35-237h0c-11.51-2.63-23.21-4.29-35-4.97h0Z"/>
        <path class="cls-4" d="m244.26,283.1V42.24c-11.7.58-23.33,2.12-34.77,4.59-56.39,44.59-9.71,144.03,34.77,236.01v.25Z"/>
        <path class="cls-6" d="m352.26,66.83c19.24,53.78-10.46,127.75-44.74,200.36,36.47-39.13,82.27-90.55,80.08-143.47-1-24.34-14.72-43.47-35.34-56.89h0Z"/>
        <path class="cls-5" d="m207.26,270.23c-35.15-74.1-66.11-149.87-45.74-204.58-21.55,13.6-36.09,32.98-37.16,58.07-2.25,54.34,45.99,107.01,82.9,146.51h0Z"/>
      </g>
      <path class="cls-9" d="m325.22,374.67h-22.32l4.12-33.19-20.46.19-3.37,27h-52.08l-3.37-27h-20.46l4.08,33h-25.16v8h26v29.27c0,12.48,12.04,22.73,26.76,22.73h36.49c14.72,0,26.76-10.31,26.76-22.73v-29.27h23v-8Z"/>
      <text class="cls-10" transform="translate(0 348.18)"><tspan class="cls-8" x="0" y="0"> </tspan><tspan class="cls-1" x="18.02" y="0" xml:space="preserve">Air         Ride</tspan></text>
      <g>
        <path class="cls-2" d="m144.06,482.82c-4.9,19.98,1.83,24.84,1.83,24.89-3.9,2.16-18.89.97-16.37-20.03,1.4-11.55,8.33-31.78,8.33-31.86-4.37-3.4-20.91-2.02-20.9-2.1-7.88,15.04-13.99,44.21-24.24,46.44-11.96,2.54-15.54-10.1-14.75-9.72,11.03,2.64,15.59-8.05,32.75-36.85,0,.04-8.5-.55-13.61-7.99-6.45-9.11.88-21.43,3.95-16.81,0,.07-4.31,11.45,14.52,16.79,0,.05,8.57-15.48,18.38-25.86,4.16-4.46,9.97-9.93,17.37-10.37,10.47-.67,9.7,8.89,7.4,18.09-2.49,10.48-10.33,37.89-14.67,55.4Zm-1.02-66.72c-10.95,7.42-23.01,30.86-22.99,30.69,0,.03,16.24,1.65,19.52,4.02,0,.15,9.93-25.55,10.66-32.89.73-7.29-7.19-1.79-7.19-1.82Z"/>
        <path class="cls-2" d="m224.85,482.17c.6.84.76,2.24.32,3.28-4.83,10.92-11.14,17.07-15.31,18.18-7.22,1.94-11.91-4.01-12.87-9.11-.89-5.12-.37-10.52,4.02-25.21,3.04-9.96,2.34-16.69-.82-17.14-2.05-.31-4.31,2.13-6.51,6.24.11,4.22-1.07,9.34-5.11,21.32-6.56,18.85-.88,19.09-.88,19.12-1.96,4.05-10.26,5.11-12.75-5.59-.8-3.57.25-9.55,4.11-20.36,7.72-22.11.94-21.78.94-21.74-2.31,0-4.74,2.33-7.2,5.96-.23,3.55-1.52,8.82-4.22,16.34-7.74,21.32-1.82,25.67-1.82,25.73-7.84,1.6-11.99-5.18-12.59-10.12-.68-4.89.08-8.92,4.94-22.43,6.56-18.2-.08-18.94-.08-18.91,1.95-3.78,11.09-5.03,13.57,5.47,0,.11.08.12.08.23,3.15-4.38,6.1-7.05,8.5-7.51,6.86-1.4,11.14,4.31,12.11,9.28,2.63-4.21,4.62-6.09,7.04-7.73,2.07-1.29,11.51-3.13,13.3,7.12.48,3.02.52,8.96-2.78,20.63-6.63,23.47-1.11,23.29-.06,23.15,3.9-.21,9.61-8.17,13.64-16.91.14.24.28.48.43.72Z"/>
        <path class="cls-2" d="m273.02,482.65c.78,1.16.96,2.79.36,4.21-4.63,9.94-10.7,17.21-16.36,18.51-6,1.54-10.09-2.29-11.98-6.42-2.7,3.48-5.58,5.77-8.54,6.27-5.83,1.14-14.5-2.54-14.88-19.09-.17-10.37,4.61-25.92,12.45-33.42,6.99-6.58,12.63-6.21,16.32-4.2,3.52-2.57,10.55-2.11,12.8,7.04.86,3.52-.15,9.98-4.11,21.63-8.04,23.39-.77,22.68-.76,22.67,3.48,0,11.1-9.38,14.52-17.43.06.08.12.15.17.23Zm-29.01,13.12c0-.12,0-.23-.09-.47-.68-5.18.13-9.72,5.16-24.6,4.24-12.66,3.03-17.49,1.49-19.25-.78-.13-7.36-.94-13.82,17.23-6.12,17.2-6.85,34.6,3.25,30.19,1.39-.67,2.78-1.7,4-3.09Z"/>
        <path class="cls-2" d="m317.76,484.44c-7.42,18.85-13.51,19.74-18.16,21.87-.31,3.84-1.04,8.99-3.51,14.62-7.76,18.15-21.21,16.13-22.64,5.21-.63-4.91.92-11.39,5.51-15.53,3.12-2.68,9.96-5.78,12.81-7.1,1.24-7.04-2.25-10.6-2.25-10.61-3.9.05-6.27-4.55-6.27-4.55-1.4-2.29-.04-6.66.48-6.44,11.11,5.21,13.92-8.69,14.81-14.03,1.62-10.02.17-18.07-7.52-13.82-7.43,4.13-14.83,21.94-17.13,32.19-1.3.26-2.26-1.48-1.92-3.24,3.32-16.48,10.72-31.34,22.25-35.65,12.2-4.54,15.04,11.78,14.12,20.32-2.16,20.25-14.24,24.45-14.24,24.42,4.88,3.71,5.46,9.9,5.46,9.91,0,.04,9.8-1.29,16.87-20.57,1.12.04,1.83,1.58,1.33,2.99Zm-27.25,24.61c-4.33,2.22-11.36,4.72-12.9,10.5-1.71,6.38,1.01,9.8,4.4,6.84,4.7-3.96,8.5-17.35,8.5-17.34Z"/>
        <path class="cls-2" d="m342.09,479.08c.7.93.9,2.35.49,3.61-3.18,9.19-10.88,17.72-15.52,19.34-7.3,2.59-11.8-3.56-12.55-8.66-.67-4.98-.03-9.54,4.59-24.31,6.25-19.69-.44-19.67-.44-19.7,1.92-4.19,11.12-5.96,13.76,4.43.82,3.33-.01,9.51-3.7,20.96-7.39,23.12-.88,21.92-.87,21.88,4.23-.45,12.7-13,13.9-17.97.12.14.23.27.35.41Zm-14.31-37.79c-3.33.13-6.03-3.3-6.09-7.73-.06-4.43,2.53-8,5.85-8.06,3.32-.06,6.02,3.36,6.09,7.72.07,4.36-2.52,7.94-5.85,8.07Z"/>
        <path class="cls-2" d="m388.49,473.04c.86.89,1.06,2.38.49,3.69-4.28,10.37-10.68,16.92-14.57,18.44-7.34,2.8-11.79-1.66-12.81-6.28-.94-4.59-.85-9.12,3.22-23.39,3.12-10.79,2.06-17.03-1.08-16.39-2.8.64-4.46,3.12-6.68,7.42-.36,3.61-1.46,8.58-3.72,15.68-7.2,22.59-1.57,26.62-1.57,26.56-7.16,2.57-11.73-3-12.41-7.84-.77-4.92-.15-9.4,4.31-23.86,6.07-19.35-.59-19.07-.59-19.11,1.9-4.11,10.98-6.04,13.72,3.94.09.32.18.64.19.96,2.48-4.09,4.99-6.83,7.34-8.27,1.43-.76,9.62-4.18,12.77,5.15,1.08,3.05.51,8.77-2.51,19.74-6.03,22.45.48,20.8.48,20.74,3.56-.61,10-9.25,13.31-17.37.03.06.06.13.09.19Z"/>
        <path class="cls-2" d="m432.83,468.2c-6.77,10.35-14.39,16.03-19.1,18.67-.56,1.73-3.74,11.37-5.03,14.46-1.7,3.85-7.03,17.36-15.06,14.18-4.49-1.68-7.31-12.67,1.13-20.95,1.66-1.57,6.04-5.12,8.86-6.92.16-.72-.32.86,0,0-1.24,1.06-2.48,1.93-3.73,2.5-5.41,2.22-13.31-.12-14.24-13.49-.59-9.08,3.71-23.52,10.94-30.64,6.23-6.16,11.56-6.34,15.03-5.17,4.26-2.78,9.76-.82,11.58,4.45,3.01,9-5.43,29.41-8.14,36.88.01.09,8.66-3.69,17.81-17.55.91.7.76,2.32-.06,3.58Zm-30.62,23.9c-3.47,2.97-7.45,6.07-8.55,10.17-1.58,5.64,1.55,6.37,3.82,2.19,2.03-3.73,4.73-12.37,4.73-12.36Zm3.18-10.12c2.7-8.89,6.05-20.31,7.31-26.38,1.88-9.2-.5-11.45-2.19-12.06-2.35.74-6.86,3.71-11.12,15.66-5.39,15.44-5.59,30.73,3.62,24.75.83-.57,1.57-1.21,2.4-1.97Z"/>
        <path class="cls-2" d="m131.71,573.12c-4.84,18.58,1.81,24.81,1.81,24.86-3.89,1.36-18.61-3.34-16.14-23.35,1.36-10.96,8.17-29.26,8.18-29.36-4.35-4.2-20.56-6.82-20.52-6.96-7.65,12.69-13.49,39.41-23.25,38.33-11.34-1.39-14.71-14.97-13.99-14.28,10.41,6.25,14.62-2.38,31.16-25.8-.01.05-8.24-2.81-13.16-11.52-6.23-10.69.76-20.52,3.75-15.22.02.01-4.18,10.06,14.13,20.18,0,.05,8.32-12.92,18-21,4.11-3.47,9.85-7.64,17.23-6.7,10.45,1.24,9.7,10.47,7.39,19.15-2.5,9.91-10.32,35.41-14.61,51.67Zm-1.03-65.77c-10.88,5.15-22.65,25.14-22.63,24.96-.03.09,15.93,5.47,19.21,8.41-.01.18,9.84-23.06,10.58-30.18.73-7.01-7.16-3.14-7.15-3.19Z"/>
        <path class="cls-2" d="m191.7,585.99c-4.07,8.83-11.87,14.14-17.27,13.71-6.11-.46-10.54-4.59-12.2-9.12-2.56,2.63-5.27,4.04-8.02,3.75-5.61-.49-13.43-7.42-13.83-21.59-.24-9.54,4.6-22.32,12.16-27.68,9.13-6.54,15.96-1.68,18.75,2.34,0,0,2.1-6.55,2.85-10.24,2.27-11.75-1.73-15.71-4.04-16.61,1.97-4.13,8.72-5.93,13.04.36,3.13,4.67,4.41,12.85.47,26.66-3.12,10.98-7.3,22.09-8.03,24.4-6.42,19.93-1.76,22.26-1.06,22.68,5.61,3.62,13.42-8.1,17-13.62,0,0,1.73,1.54.2,4.95Zm-20.96-36.67c-.59-1.11-1.35-1.93-2.3-2.22,0-.05-6.77-3.25-13.6,13.22-6.02,14.56-6.86,30.46,2.75,28.87,1.39-.27,2.7-.9,3.93-2-1.27-11.14,4.53-21.31,9.23-37.87Z"/>
        <path class="cls-2" d="m237.11,568.2c-5.91.22-11.64.63-11.64.62-7.27,20.66-16.91,35.78-25.21,35.9-8.21.26-12.41-6.92-13.04-12.01-.47-3.76-.56-9.25,5.13-22.84,6.87-16.97,0-19.56,0-19.54,2.32-3.75,11.83-5.1,13.99,6.08,1.08,5.2-1.2,13.53-4.55,22.28-8.35,21.66-.16,20.69-.15,20.71,9.01,1.53,21.21-30.58,21.19-30.66-5.19-.18-6.56-4.28-6.8-7.44-.14-4.08,1.32-10.79,6.5-11.59,3.51-.46,6.64,3.57,5.91,9.49-.27,1.86-2.07,6.53-2.07,6.53,0,0,3.97-.66,8.55-.8,1.85-.15,2.19,3.26,2.19,3.26Zm-13.11-2.52c.81-2.27.9-2.85,1.53-4.91,1.53-5.39-.29-8.77-2.48-8.69-4.56.15-6.41,10.44-2.74,13.08,1.22.92,3.69.52,3.69.52Z"/>
        <path class="cls-2" d="m267.6,590.62s-6.44,13.56-17.49,17.52c-11.06,4.07-21.17-4.38-21.77-19.49-.22-7.03,1.26-18.01,5.52-25.06,7.9-13.19,15.96-13.57,20.45-12.27,7.47,2.12,8.72,10.97,8.46,14.16-1.54,18.67-17.25,19.21-22.07,9.18-6.8,18.43-.04,32.73,10.93,28.09,3.57-1.44,12.89-10.02,15.17-16.46,0,0,1.95,1,.81,4.32Zm-26.1-17.8s8.83,9.44,15.01-6.92c1.06-2.82,3.25-9.17-.35-11.39-1.15-.71-7.28-1.03-14.66,18.32Z"/>
        <path class="cls-2" d="m316.09,582.02c.89,1.01,1.09,2.69.49,4.16-4.5,11.62-11.23,18.55-15.29,19.99-7.68,2.63-12.26-2.58-13.26-7.62-.93-5.05-.77-9.86,3.61-25.26,3.34-11.7,2.31-18.57-.93-17.86-2.89.68-4.63,3.36-6.97,7.95-.42,3.88-1.61,9.22-4.05,16.74-7.76,23.74-1.99,28.34-1.98,28.33-7.47,2.1-12.12-4.27-12.75-9.41-.72-5.27,0-9.85,4.81-24.91,6.54-20.29-.34-20.27-.33-20.29,2.01-4.26,11.38-6.27,14.09,4.52.09.34.18.69.18,1.04,2.61-4.37,5.22-7.34,7.66-8.92,1.49-.8,9.94-4.73,13.11,5.54,1.09,3.35.46,9.76-2.76,21.82-6.46,24.51.31,22.92.32,22.89,3.71-.47,10.49-9.8,13.96-18.94.03.07.06.14.09.22Z"/>
        <path class="cls-2" d="m341.94,576.52c.95,0,1.41,1.13,1.08,2.21-4.64,13.01-10.9,20.8-15.51,23.01-7.23,3.45-12.07-1.93-12.92-6.85-2.18-12.63,5.46-27.85,9.72-51.18-1.82.6-3.97,1.92-5.89,2.17-10.27,1.66-10.37-14.35-5.35-16.44.61-.19-.48,10.19,6.46,8.64,1.99-.48,4.76-1.53,5.97-2.15.98-10.11-1.85-14.29-4.44-13.2,1.93-4.67,8.71-8.47,13.19-3.35,2.38,2.71,3.82,6.62,3.01,14.92,7.96.7,5.12,11.36,4.75,10.12-1.28-4.11-2.58-4.66-5.51-3.84-.32,1.51-.72,3.71-1.13,5.35-2.75,11.8-6.48,24.48-7.23,27-6.64,23.93-.71,23.42,0,23.24,4.38-.57,12.41-15.89,13.73-19.51,0-.11.08-.13.08-.13Z"/>
        <path class="cls-2" d="m387.45,566c-4.88,12.94-11.51,21.08-15.56,23.34-6.5,3.69-10.79.26-12.07-3.94-3.17,5.52-6.21,9.28-8.61,10.51-7.3,3.52-11.85-1.56-12.62-6.32-.69-4.76-.06-9.44,4.54-24.47,6.23-20.3-.5-19.11-.5-19.16,1.92-4.36,11.17-7.53,13.83,1.97.83,3.2,0,9.35-3.66,21.02-7.35,23.8-.65,21.45-.65,21.4,2.33-.54,4.79-2.91,7.2-7.53-.42-4.22.52-9.23,4.64-22.77,6.04-19.88-.61-18.45-.61-18.51,1.98-4.35,11.04-7.84,13.66,1.26.9,2.91,0,8.89-3.6,20.5-7.14,23.45-.29,20.55-.29,20.48,2.8-.97,9.4-10.25,13.09-20.03,1.09-.29,1.78.9,1.22,2.24Z"/>
        <path class="cls-2" d="m411.46,556.57c-4.89,12.17-11.02,20.57-15.14,23.18-7,4.43-11.3.42-11.98-4.02-.76-4.26-.44-10.1,4.25-24.65,5.72-17.78,5.75-20.65,4.82-20.92-1.1-.37-2.85.25-4.02.49-3.36.38-5.54-2.97-5.38-7.98.18-3.98,1.16-10.31,4.34-11.58,2.85-1.1,2.89,1.42,2.89,1.42-2.08,6.31-2.75,15.16,1.53,14.91,11.3-.68,12.33,3.77,5.07,26.13-5.93,18.31-2.71,21.02-1.13,20.98,3.92.21,9.84-10.89,13.71-20.41,1.07-.08,1.49,1.08,1.02,2.45Z"/>
        <path class="cls-2" d="m443.47,540.93c-.02-.06-5.62,13.05-15.37,21.94-9.75,9-19.12,7.45-19.99-4.9-.34-5.71.83-15.5,4.67-22.94,7.12-13.86,14.6-16.87,18.7-17.63,6.84-1.19,7.95,4.8,7.72,7.27-1.36,14.36-15.35,22.38-19.95,16.43-5.96,17.85.48,26.22,10.16,16.85,3.16-2.97,11.35-14.06,13.36-19.78,0,0,1.71-.21.7,2.76Zm-23.52-1.65c.02.14,8.13,3.4,13.6-11.69.94-2.6,2.92-8.21-.38-8.48-1.04,0-6.69,1.75-13.23,20.17Z"/>
      </g>
    </g>
  </g>
</svg>